<?xml version="1.0" encoding="utf-8"?>
<!-- Generator: Adobe Illustrator 21.1.0, SVG Export Plug-In . SVG Version: 6.00 Build 0)  -->


<!-- Generator: Adobe Illustrator 25.0.1, SVG Export Plug-In . SVG Version: 6.00 Build 0)  -->
<!-- Generator: Adobe Illustrator 25.0.1, SVG Export Plug-In . SVG Version: 6.00 Build 0)  -->
<svg version="1.1" id="Layer_1" xmlns="http://www.w3.org/2000/svg" xmlns:xlink="http://www.w3.org/1999/xlink" x="0px" y="0px"
	 viewBox="0 0 250 50" style="enable-background:new 0 0 250 50;" xml:space="preserve">
<style type="text/css">
	.st0{fill:#FFFFFF;stroke:#FFFFFF;stroke-miterlimit:10;}
</style>
<g>
	<path class="st0" d="M12.09,25.44h-1.98v8.97c0,1.18-0.26,2.05-0.78,2.61s-1.2,0.84-2.04,0.84c-0.9,0-1.6-0.29-2.09-0.88
		s-0.74-1.44-0.74-2.57V12.93c0-1.22,0.27-2.1,0.82-2.65S6.7,9.46,7.92,9.46h9.2c1.27,0,2.35,0.05,3.26,0.16s1.71,0.33,2.44,0.66
		c0.88,0.37,1.65,0.9,2.32,1.58s1.18,1.48,1.53,2.39c0.35,0.91,0.52,1.87,0.52,2.89c0,2.08-0.59,3.75-1.76,4.99
		s-2.95,2.13-5.34,2.65c1,0.53,1.96,1.32,2.88,2.36s1.73,2.15,2.45,3.32c0.72,1.17,1.28,2.23,1.68,3.18c0.4,0.95,0.6,1.6,0.6,1.95
		c0,0.37-0.12,0.73-0.35,1.09c-0.23,0.36-0.56,0.65-0.96,0.86s-0.88,0.31-1.41,0.31c-0.63,0-1.17-0.15-1.6-0.45
		c-0.43-0.3-0.8-0.68-1.11-1.13c-0.31-0.46-0.73-1.13-1.27-2.02l-2.27-3.77c-0.81-1.38-1.54-2.44-2.18-3.16
		c-0.64-0.72-1.29-1.22-1.95-1.48C13.93,25.57,13.1,25.44,12.09,25.44z M15.33,13.71h-5.22v7.67h5.07c1.36,0,2.5-0.12,3.43-0.35
		c0.93-0.23,1.63-0.63,2.12-1.2c0.49-0.56,0.73-1.34,0.73-2.33c0-0.77-0.2-1.46-0.59-2.05c-0.39-0.59-0.94-1.03-1.64-1.32
		C18.57,13.85,17.27,13.71,15.33,13.71z"/>
	<path class="st0" d="M50.94,13.82H38.2v6.86h11.73c0.86,0,1.51,0.19,1.93,0.58c0.42,0.39,0.64,0.9,0.64,1.53s-0.21,1.15-0.63,1.55
		c-0.42,0.4-1.07,0.6-1.94,0.6H38.2v7.94h13.18c0.89,0,1.56,0.21,2.01,0.62c0.45,0.41,0.68,0.96,0.68,1.65
		c0,0.66-0.23,1.2-0.68,1.61c-0.45,0.41-1.12,0.62-2.01,0.62H36.01c-1.23,0-2.12-0.27-2.66-0.82c-0.54-0.55-0.81-1.43-0.81-2.65
		V12.93c0-0.81,0.12-1.48,0.36-1.99c0.24-0.51,0.62-0.89,1.13-1.12c0.51-0.23,1.17-0.35,1.97-0.35h14.93c0.9,0,1.57,0.2,2.01,0.6
		c0.44,0.4,0.66,0.92,0.66,1.57c0,0.66-0.22,1.19-0.66,1.59C52.51,13.62,51.84,13.82,50.94,13.82z"/>
	<path class="st0" d="M82.34,28.56c0,0.89-0.22,1.85-0.66,2.88c-0.44,1.04-1.13,2.05-2.07,3.05c-0.94,1-2.14,1.81-3.6,2.43
		c-1.46,0.62-3.16,0.93-5.1,0.93c-1.47,0-2.81-0.14-4.02-0.42c-1.21-0.28-2.3-0.71-3.28-1.3c-0.98-0.59-1.89-1.37-2.71-2.33
		c-0.74-0.88-1.36-1.86-1.89-2.94s-0.91-2.24-1.17-3.48c-0.26-1.23-0.39-2.54-0.39-3.92c0-2.25,0.33-4.26,0.98-6.04
		s1.59-3.3,2.81-4.56s2.65-2.23,4.28-2.89c1.64-0.66,3.38-0.99,5.24-0.99c2.26,0,4.27,0.45,6.04,1.35c1.77,0.9,3.12,2.02,4.06,3.34
		c0.94,1.33,1.41,2.58,1.41,3.76c0,0.65-0.23,1.22-0.69,1.71s-1.01,0.74-1.66,0.74c-0.72,0-1.27-0.17-1.63-0.51
		c-0.36-0.34-0.77-0.93-1.21-1.77c-0.74-1.38-1.6-2.42-2.6-3.1c-1-0.69-2.23-1.03-3.69-1.03c-2.32,0-4.17,0.88-5.55,2.65
		s-2.07,4.27-2.07,7.52c0,2.17,0.3,3.98,0.91,5.42c0.61,1.44,1.47,2.52,2.59,3.23s2.42,1.07,3.92,1.07c1.62,0,3-0.4,4.12-1.21
		c1.12-0.81,1.97-1.99,2.54-3.55c0.24-0.74,0.54-1.34,0.89-1.8c0.36-0.46,0.93-0.7,1.71-0.7c0.67,0,1.25,0.24,1.73,0.71
		S82.34,27.86,82.34,28.56z"/>
	<path class="st0" d="M93.65,34.41v-8.85l-6.82-10.57c-0.6-0.95-1.02-1.69-1.27-2.23c-0.25-0.53-0.37-1-0.37-1.39
		c0-0.65,0.25-1.21,0.75-1.68c0.5-0.47,1.12-0.7,1.86-0.7c0.77,0,1.36,0.22,1.76,0.66c0.4,0.44,1,1.31,1.8,2.62l5.22,8.47l5.27-8.47
		c0.32-0.52,0.58-0.96,0.8-1.31s0.45-0.69,0.71-1c0.26-0.31,0.55-0.55,0.87-0.71s0.71-0.25,1.16-0.25c0.71,0,1.3,0.23,1.78,0.69
		c0.48,0.46,0.71,1,0.71,1.61c0,0.5-0.12,0.99-0.36,1.49s-0.65,1.18-1.24,2.06l-6.99,10.72v8.85c0,1.16-0.27,2.02-0.8,2.59
		c-0.53,0.57-1.21,0.86-2.04,0.86c-0.84,0-1.52-0.28-2.04-0.85S93.65,35.58,93.65,34.41z"/>
	<path class="st0" d="M117.34,12.41v20.32h11.46c0.91,0,1.62,0.22,2.1,0.67c0.49,0.44,0.73,1,0.73,1.68c0,0.69-0.24,1.24-0.72,1.67
		c-0.48,0.42-1.19,0.64-2.11,0.64h-13.65c-1.23,0-2.12-0.27-2.66-0.82c-0.54-0.55-0.81-1.43-0.81-2.65v-21.5
		c0-1.14,0.26-2,0.77-2.57c0.51-0.57,1.19-0.86,2.03-0.86c0.85,0,1.54,0.28,2.07,0.85C117.08,10.4,117.34,11.26,117.34,12.41z"/>
	<path class="st0" d="M153.75,13.82h-12.74v6.86h11.73c0.86,0,1.51,0.19,1.93,0.58c0.42,0.39,0.64,0.9,0.64,1.53
		s-0.21,1.15-0.63,1.55c-0.42,0.4-1.07,0.6-1.94,0.6h-11.73v7.94h13.18c0.89,0,1.56,0.21,2.01,0.62c0.45,0.41,0.68,0.96,0.68,1.65
		c0,0.66-0.23,1.2-0.68,1.61c-0.45,0.41-1.12,0.62-2.01,0.62h-15.37c-1.23,0-2.12-0.27-2.66-0.82c-0.54-0.55-0.81-1.43-0.81-2.65
		V12.93c0-0.81,0.12-1.48,0.36-1.99c0.24-0.51,0.62-0.89,1.13-1.12c0.51-0.23,1.17-0.35,1.97-0.35h14.93c0.9,0,1.57,0.2,2.01,0.6
		c0.44,0.4,0.66,0.92,0.66,1.57c0,0.66-0.22,1.19-0.66,1.59C155.33,13.62,154.66,13.82,153.75,13.82z"/>
	<path class="st0" d="M188.98,34.22l-1.33-3.5H176.3l-1.33,3.58c-0.52,1.4-0.96,2.34-1.33,2.83c-0.37,0.49-0.97,0.73-1.81,0.73
		c-0.71,0-1.34-0.26-1.89-0.78c-0.55-0.52-0.82-1.11-0.82-1.77c0-0.38,0.06-0.77,0.19-1.18c0.13-0.41,0.34-0.97,0.63-1.7l7.14-18.13
		c0.2-0.52,0.45-1.15,0.73-1.88c0.29-0.73,0.59-1.34,0.91-1.82c0.32-0.48,0.75-0.87,1.28-1.17c0.53-0.3,1.18-0.45,1.95-0.45
		c0.79,0,1.44,0.15,1.97,0.45c0.53,0.3,0.95,0.68,1.28,1.15c0.32,0.47,0.6,0.97,0.82,1.51c0.22,0.54,0.5,1.26,0.85,2.16l7.29,18.01
		c0.57,1.37,0.86,2.37,0.86,2.99c0,0.65-0.27,1.24-0.81,1.78c-0.54,0.54-1.19,0.81-1.95,0.81c-0.44,0-0.83-0.08-1.14-0.24
		s-0.58-0.37-0.8-0.65c-0.22-0.27-0.45-0.69-0.7-1.26C189.37,35.15,189.16,34.65,188.98,34.22z M177.79,26.47h8.34l-4.21-11.52
		L177.79,26.47z"/>
	<path class="st0" d="M210.01,26.51h-5.18v7.9c0,1.13-0.27,1.99-0.8,2.57s-1.21,0.88-2.02,0.88c-0.85,0-1.54-0.29-2.06-0.87
		c-0.52-0.58-0.78-1.42-0.78-2.54V12.93c0-1.24,0.29-2.13,0.86-2.67c0.57-0.53,1.48-0.8,2.72-0.8h7.26c2.14,0,3.79,0.17,4.95,0.5
		c1.14,0.32,2.13,0.84,2.96,1.58c0.83,0.74,1.46,1.64,1.89,2.7s0.65,2.27,0.65,3.6c0,2.84-0.88,5-2.63,6.46
		C216.08,25.77,213.47,26.51,210.01,26.51z M208.64,13.71h-3.81v8.53h3.81c1.33,0,2.45-0.14,3.34-0.42
		c0.89-0.28,1.58-0.74,2.05-1.37s0.71-1.47,0.71-2.49c0-1.23-0.36-2.23-1.09-3.01C212.83,14.12,211.16,13.71,208.64,13.71z"/>
	<path class="st0" d="M236.02,26.51h-5.18v7.9c0,1.13-0.27,1.99-0.8,2.57s-1.21,0.88-2.02,0.88c-0.85,0-1.54-0.29-2.06-0.87
		c-0.52-0.58-0.78-1.42-0.78-2.54V12.93c0-1.24,0.29-2.13,0.86-2.67c0.57-0.53,1.48-0.8,2.72-0.8h7.26c2.14,0,3.79,0.17,4.95,0.5
		c1.14,0.32,2.13,0.84,2.96,1.58c0.83,0.74,1.46,1.64,1.89,2.7s0.65,2.27,0.65,3.6c0,2.84-0.88,5-2.63,6.46
		C242.09,25.77,239.48,26.51,236.02,26.51z M234.65,13.71h-3.81v8.53h3.81c1.33,0,2.45-0.14,3.34-0.42
		c0.89-0.28,1.58-0.74,2.05-1.37s0.71-1.47,0.71-2.49c0-1.23-0.36-2.23-1.09-3.01C238.84,14.12,237.17,13.71,234.65,13.71z"/>
</g>
<g>
</g>
<g>
</g>
<g>
</g>
<g>
</g>
<g>
</g>
<g>
</g>
<g>
</g>
<g>
</g>
<g>
</g>
<g>
</g>
<g>
</g>
<g>
</g>
<g>
</g>
<g>
</g>
<g>
</g>
</svg>

