<?xml version="1.0" encoding="utf-8"?>
<!-- Generator: Adobe Illustrator 22.1.0, SVG Export Plug-In . SVG Version: 6.00 Build 0)  -->
<svg version="1.1" id="Layer_1" xmlns="http://www.w3.org/2000/svg" xmlns:xlink="http://www.w3.org/1999/xlink" x="0px" y="0px"
	 viewBox="0 0 250 50" style="enable-background:new 0 0 250 50;" xml:space="preserve">
<style type="text/css">
	.st0{fill:#FFFFFF;stroke:#FFFFFF;stroke-miterlimit:10;}
</style>
<g>
	<path class="st0" d="M115.1,28.7H112v14.03c0,1.85-0.41,3.21-1.22,4.08c-0.81,0.87-1.88,1.31-3.19,1.31c-1.41,0-2.5-0.46-3.28-1.37
		s-1.16-2.25-1.16-4.02V9.14c0-1.91,0.43-3.29,1.28-4.14c0.85-0.85,2.23-1.28,4.14-1.28h14.39c1.99,0,3.68,0.08,5.09,0.25
		c1.41,0.17,2.68,0.51,3.81,1.03c1.37,0.58,2.58,1.4,3.63,2.47c1.05,1.07,1.85,2.32,2.4,3.74c0.55,1.42,0.82,2.92,0.82,4.51
		c0,3.26-0.92,5.86-2.75,7.8c-1.84,1.95-4.62,3.33-8.36,4.14c1.57,0.83,3.07,2.06,4.5,3.69c1.43,1.63,2.71,3.36,3.83,5.2
		c1.12,1.84,2,3.49,2.62,4.97c0.63,1.48,0.94,2.5,0.94,3.05c0,0.58-0.18,1.15-0.55,1.71c-0.37,0.56-0.87,1.01-1.5,1.34
		c-0.64,0.33-1.37,0.49-2.21,0.49c-0.99,0-1.83-0.23-2.5-0.7c-0.67-0.47-1.26-1.06-1.74-1.77s-1.15-1.77-1.98-3.16l-3.54-5.9
		c-1.27-2.16-2.41-3.81-3.41-4.95c-1-1.13-2.02-1.91-3.05-2.32C117.97,28.91,116.67,28.7,115.1,28.7z M120.16,10.36H112v12h7.92
		c2.12,0,3.91-0.18,5.36-0.55c1.45-0.37,2.56-0.99,3.32-1.88c0.76-0.88,1.15-2.1,1.15-3.65c0-1.21-0.31-2.28-0.92-3.2
		c-0.62-0.92-1.47-1.61-2.56-2.07C125.23,10.58,123.2,10.36,120.16,10.36z"/>
</g>
<g>
</g>
<g>
</g>
<g>
</g>
<g>
</g>
<g>
</g>
<g>
</g>
<g>
</g>
<g>
</g>
<g>
</g>
<g>
</g>
<g>
</g>
<g>
</g>
<g>
</g>
<g>
</g>
<g>
</g>
</svg>